<svg width="1024" height="892" viewBox="0 0 1024 892" fill="none" xmlns="http://www.w3.org/2000/svg">
<rect width="1024" height="892" fill="white"/>
<path d="M157.814 565.033H169.453C169.229 570.1 168.203 574.412 166.375 577.971C164.548 581.499 161.918 584.192 158.487 586.052C155.089 587.911 150.936 588.841 146.03 588.841C142.311 588.841 138.976 588.168 136.026 586.821C133.108 585.475 130.623 583.535 128.571 581.002C126.519 578.436 124.948 575.31 123.858 571.623C122.799 567.935 122.27 563.751 122.27 559.069V546.66C122.27 541.979 122.815 537.794 123.906 534.107C125.028 530.42 126.631 527.293 128.715 524.728C130.8 522.163 133.333 520.223 136.315 518.908C139.329 517.562 142.728 516.888 146.511 516.888C151.353 516.888 155.425 517.818 158.728 519.678C162.031 521.538 164.58 524.263 166.375 527.854C168.171 531.446 169.213 535.822 169.502 540.985H157.862C157.702 537.49 157.221 534.7 156.419 532.616C155.65 530.5 154.463 528.977 152.86 528.047C151.289 527.117 149.173 526.652 146.511 526.652C144.299 526.652 142.391 527.069 140.788 527.902C139.217 528.736 137.918 529.987 136.892 531.654C135.898 533.289 135.144 535.358 134.631 537.859C134.15 540.328 133.91 543.229 133.91 546.564V559.069C133.91 562.276 134.118 565.114 134.535 567.582C134.952 570.051 135.625 572.152 136.555 573.883C137.485 575.583 138.72 576.881 140.259 577.779C141.798 578.645 143.722 579.078 146.03 579.078C148.788 579.078 150.984 578.645 152.62 577.779C154.287 576.913 155.521 575.454 156.323 573.402C157.125 571.35 157.622 568.56 157.814 565.033ZM202.977 577.298V551.374C202.977 549.578 202.721 548.135 202.208 547.045C201.727 545.955 201.005 545.169 200.043 544.688C199.113 544.175 197.943 543.919 196.532 543.919C195.057 543.919 193.807 544.223 192.781 544.833C191.787 545.442 191.033 546.276 190.52 547.334C190.007 548.36 189.75 549.546 189.75 550.893H178.544C178.544 548.809 178.961 546.805 179.794 544.881C180.66 542.957 181.895 541.241 183.498 539.734C185.101 538.227 187.041 537.041 189.318 536.175C191.594 535.309 194.127 534.877 196.917 534.877C200.252 534.877 203.218 535.438 205.815 536.56C208.412 537.65 210.448 539.43 211.923 541.899C213.43 544.336 214.184 547.542 214.184 551.518V575.807C214.184 578.212 214.328 580.36 214.617 582.252C214.937 584.112 215.37 585.731 215.915 587.11V587.879H204.516C204.003 586.629 203.618 585.026 203.362 583.07C203.105 581.114 202.977 579.19 202.977 577.298ZM204.468 556.184L204.516 563.446H199.129C197.526 563.446 196.083 563.671 194.801 564.119C193.518 564.536 192.428 565.146 191.53 565.947C190.664 566.717 189.991 567.663 189.51 568.785C189.061 569.907 188.837 571.142 188.837 572.488C188.837 574.124 189.061 575.454 189.51 576.48C189.991 577.506 190.68 578.276 191.578 578.789C192.508 579.27 193.63 579.511 194.945 579.511C196.74 579.511 198.296 579.126 199.61 578.356C200.957 577.555 201.983 576.593 202.688 575.47C203.426 574.348 203.715 573.322 203.554 572.392L206.103 577.058C205.847 578.276 205.366 579.559 204.66 580.905C203.987 582.252 203.105 583.535 202.015 584.753C200.925 585.972 199.61 586.966 198.071 587.735C196.532 588.473 194.752 588.841 192.732 588.841C189.815 588.841 187.217 588.232 184.941 587.014C182.664 585.795 180.868 584.048 179.554 581.771C178.271 579.462 177.63 576.705 177.63 573.498C177.63 570.901 178.063 568.544 178.929 566.428C179.794 564.312 181.077 562.5 182.776 560.993C184.476 559.454 186.608 558.268 189.173 557.434C191.77 556.6 194.801 556.184 198.264 556.184H204.468ZM236.741 546.949V587.879H225.535V535.838H236.068L236.741 546.949ZM234.721 559.983H231.162C231.13 556.232 231.531 552.817 232.364 549.739C233.198 546.66 234.384 544.015 235.923 541.803C237.463 539.59 239.306 537.891 241.455 536.704C243.635 535.486 246.056 534.877 248.717 534.877C250.801 534.877 252.693 535.229 254.393 535.935C256.124 536.608 257.599 537.714 258.818 539.253C260.036 540.792 260.966 542.797 261.607 545.265C262.281 547.734 262.617 550.749 262.617 554.308V587.879H251.411V554.212C251.411 551.775 251.138 549.851 250.593 548.44C250.08 546.997 249.31 545.971 248.284 545.362C247.258 544.72 245.96 544.4 244.389 544.4C242.946 544.4 241.615 544.817 240.396 545.65C239.21 546.452 238.184 547.574 237.318 549.017C236.485 550.428 235.843 552.079 235.394 553.971C234.946 555.831 234.721 557.835 234.721 559.983ZM304.895 569.795C304.895 568.352 304.734 567.069 304.414 565.947C304.125 564.793 303.564 563.751 302.73 562.821C301.896 561.891 300.71 560.977 299.171 560.079C297.664 559.182 295.708 558.268 293.303 557.338C290.546 556.28 287.964 555.125 285.56 553.875C283.187 552.592 281.087 551.149 279.259 549.546C277.463 547.911 276.052 546.003 275.026 543.823C274 541.642 273.487 539.109 273.487 536.223C273.487 533.37 273.984 530.772 274.978 528.432C276.004 526.059 277.447 524.023 279.307 522.323C281.199 520.592 283.443 519.261 286.041 518.331C288.638 517.369 291.508 516.888 294.65 516.888C299.171 516.888 303.035 517.85 306.241 519.774C309.48 521.698 311.949 524.279 313.648 527.518C315.38 530.756 316.245 534.347 316.245 538.291H304.606C304.606 536.015 304.253 533.995 303.548 532.231C302.842 530.468 301.752 529.089 300.277 528.095C298.802 527.101 296.894 526.604 294.554 526.604C292.405 526.604 290.626 527.021 289.215 527.854C287.836 528.688 286.81 529.826 286.137 531.269C285.495 532.712 285.175 534.364 285.175 536.223C285.175 537.506 285.447 538.676 285.992 539.734C286.538 540.76 287.323 541.706 288.349 542.572C289.375 543.438 290.626 544.255 292.101 545.025C293.576 545.795 295.275 546.532 297.199 547.237C300.47 548.424 303.323 549.739 305.76 551.181C308.197 552.624 310.201 554.244 311.772 556.039C313.376 557.803 314.562 559.807 315.332 562.051C316.133 564.296 316.534 566.845 316.534 569.699C316.534 572.585 316.037 575.214 315.043 577.587C314.081 579.927 312.67 581.931 310.81 583.599C308.951 585.266 306.706 586.565 304.077 587.495C301.448 588.392 298.498 588.841 295.227 588.841C292.213 588.841 289.311 588.392 286.521 587.495C283.764 586.597 281.295 585.234 279.115 583.406C276.934 581.547 275.203 579.222 273.92 576.432C272.67 573.643 272.044 570.372 272.044 566.621H283.732C283.732 568.865 284.004 570.789 284.549 572.392C285.095 573.963 285.88 575.262 286.906 576.288C287.964 577.282 289.199 578.02 290.61 578.5C292.053 578.949 293.656 579.174 295.419 579.174C297.6 579.174 299.379 578.789 300.758 578.02C302.169 577.218 303.211 576.112 303.884 574.701C304.558 573.29 304.895 571.655 304.895 569.795ZM352.462 517.85V587.879H340.823V517.85H352.462ZM370.306 517.85V527.662H323.171V517.85H370.306ZM418.548 578.116V587.879H388.15V578.116H418.548ZM391.229 517.85V587.879H379.541V517.85H391.229ZM414.459 546.997V556.616H388.15V546.997H414.459ZM418.259 517.85V527.662H388.15V517.85H418.259ZM432.207 517.85H442.837L458.949 569.939L475.013 517.85H484.873L463.326 587.879H454.524L432.207 517.85ZM428.215 517.85H438.027L439.614 562.436V587.879H428.215V517.85ZM479.775 517.85H489.635V587.879H478.236V562.436L479.775 517.85ZM564.474 578.116V587.879H534.077V578.116H564.474ZM537.155 517.85V587.879H525.467V517.85H537.155ZM560.386 546.997V556.616H534.077V546.997H560.386ZM564.185 517.85V527.662H534.077V517.85H564.185ZM598.43 577.009V514.002H609.637V587.879L599.488 587.927L598.43 577.009ZM570.486 563.975V559.887C570.486 555.622 570.871 551.935 571.64 548.825C572.41 545.682 573.532 543.069 575.007 540.985C576.514 538.901 578.326 537.362 580.442 536.368C582.558 535.374 584.947 534.877 587.608 534.877C590.206 534.877 592.45 535.47 594.342 536.656C596.234 537.81 597.837 539.462 599.152 541.61C600.466 543.758 601.508 546.324 602.278 549.306C603.08 552.256 603.625 555.558 603.913 559.214V564.889C603.561 568.416 602.999 571.655 602.23 574.605C601.46 577.523 600.418 580.04 599.104 582.156C597.789 584.272 596.17 585.923 594.246 587.11C592.354 588.264 590.125 588.841 587.56 588.841C584.899 588.841 582.51 588.312 580.394 587.254C578.31 586.196 576.514 584.625 575.007 582.541C573.532 580.456 572.41 577.875 571.64 574.797C570.871 571.687 570.486 568.079 570.486 563.975ZM581.692 559.887V563.975C581.692 566.637 581.853 568.929 582.173 570.853C582.494 572.777 583.007 574.364 583.713 575.615C584.418 576.833 585.348 577.747 586.502 578.356C587.656 578.933 589.051 579.222 590.687 579.222C592.739 579.222 594.406 578.709 595.689 577.683C597.003 576.657 598.013 575.278 598.719 573.547C599.456 571.783 599.969 569.827 600.258 567.679V556.472C600.098 554.773 599.777 553.201 599.296 551.759C598.815 550.284 598.19 549.001 597.42 547.911C596.651 546.821 595.705 545.971 594.582 545.362C593.492 544.72 592.21 544.4 590.735 544.4C589.099 544.4 587.705 544.72 586.55 545.362C585.396 545.971 584.466 546.917 583.761 548.199C583.055 549.45 582.526 551.053 582.173 553.009C581.853 554.933 581.692 557.226 581.692 559.887ZM646.816 575.615V535.838H658.022V587.879H647.489L646.816 575.615ZM648.403 564.745L651.962 564.649C651.962 568.144 651.641 571.366 651 574.316C650.359 577.266 649.365 579.831 648.018 582.012C646.704 584.16 644.988 585.843 642.872 587.062C640.788 588.248 638.271 588.841 635.321 588.841C633.204 588.841 631.264 588.473 629.501 587.735C627.737 586.998 626.214 585.859 624.932 584.32C623.649 582.781 622.655 580.777 621.95 578.308C621.244 575.839 620.891 572.889 620.891 569.458V535.838H632.098V569.554C632.098 571.414 632.258 572.969 632.579 574.22C632.9 575.438 633.349 576.432 633.926 577.202C634.503 577.939 635.144 578.468 635.85 578.789C636.587 579.078 637.373 579.222 638.206 579.222C640.74 579.222 642.744 578.597 644.219 577.346C645.726 576.064 646.8 574.332 647.441 572.152C648.082 569.971 648.403 567.502 648.403 564.745ZM687.698 579.462C689.141 579.462 690.424 579.158 691.546 578.549C692.7 577.939 693.614 576.993 694.287 575.711C694.961 574.396 695.33 572.697 695.394 570.613H705.927C705.863 574.3 705.013 577.523 703.378 580.28C701.742 583.006 699.562 585.122 696.837 586.629C694.143 588.104 691.145 588.841 687.842 588.841C684.412 588.841 681.413 588.296 678.848 587.206C676.315 586.084 674.215 584.465 672.548 582.348C670.88 580.232 669.63 577.667 668.796 574.653C667.994 571.607 667.594 568.128 667.594 564.216V559.502C667.594 555.622 667.994 552.159 668.796 549.113C669.63 546.067 670.88 543.486 672.548 541.37C674.215 539.253 676.315 537.65 678.848 536.56C681.381 535.438 684.363 534.877 687.794 534.877C691.45 534.877 694.608 535.646 697.269 537.185C699.963 538.692 702.063 540.905 703.57 543.823C705.077 546.74 705.863 550.316 705.927 554.548H695.394C695.33 552.304 694.993 550.428 694.384 548.921C693.774 547.382 692.909 546.227 691.786 545.458C690.696 544.688 689.317 544.304 687.65 544.304C685.822 544.304 684.315 544.656 683.129 545.362C681.975 546.035 681.077 547.029 680.435 548.344C679.826 549.658 679.393 551.262 679.137 553.153C678.912 555.013 678.8 557.129 678.8 559.502V564.216C678.8 566.653 678.912 568.817 679.137 570.709C679.361 572.569 679.778 574.156 680.387 575.47C681.029 576.785 681.943 577.779 683.129 578.452C684.315 579.126 685.838 579.462 687.698 579.462ZM738.777 577.298V551.374C738.777 549.578 738.521 548.135 738.008 547.045C737.527 545.955 736.805 545.169 735.843 544.688C734.913 544.175 733.743 543.919 732.332 543.919C730.857 543.919 729.607 544.223 728.581 544.833C727.587 545.442 726.833 546.276 726.32 547.334C725.807 548.36 725.55 549.546 725.55 550.893H714.344C714.344 548.809 714.761 546.805 715.594 544.881C716.46 542.957 717.695 541.241 719.298 539.734C720.901 538.227 722.841 537.041 725.118 536.175C727.394 535.309 729.927 534.877 732.717 534.877C736.052 534.877 739.018 535.438 741.615 536.56C744.212 537.65 746.248 539.43 747.723 541.899C749.23 544.336 749.984 547.542 749.984 551.518V575.807C749.984 578.212 750.128 580.36 750.417 582.252C750.737 584.112 751.17 585.731 751.715 587.11V587.879H740.316C739.803 586.629 739.418 585.026 739.162 583.07C738.905 581.114 738.777 579.19 738.777 577.298ZM740.268 556.184L740.316 563.446H734.929C733.326 563.446 731.883 563.671 730.601 564.119C729.318 564.536 728.228 565.146 727.33 565.947C726.464 566.717 725.791 567.663 725.31 568.785C724.861 569.907 724.637 571.142 724.637 572.488C724.637 574.124 724.861 575.454 725.31 576.48C725.791 577.506 726.48 578.276 727.378 578.789C728.308 579.27 729.43 579.511 730.745 579.511C732.541 579.511 734.096 579.126 735.41 578.356C736.757 577.555 737.783 576.593 738.489 575.47C739.226 574.348 739.515 573.322 739.354 572.392L741.903 577.058C741.647 578.276 741.166 579.559 740.461 580.905C739.787 582.252 738.905 583.535 737.815 584.753C736.725 585.972 735.41 586.966 733.871 587.735C732.332 588.473 730.553 588.841 728.532 588.841C725.615 588.841 723.017 588.232 720.741 587.014C718.464 585.795 716.669 584.048 715.354 581.771C714.071 579.462 713.43 576.705 713.43 573.498C713.43 570.901 713.863 568.544 714.729 566.428C715.594 564.312 716.877 562.5 718.576 560.993C720.276 559.454 722.408 558.268 724.973 557.434C727.571 556.6 730.601 556.184 734.064 556.184H740.268ZM782.497 535.838V544.496H756.958V535.838H782.497ZM763.932 523.093H775.09V573.354C775.09 574.957 775.267 576.176 775.619 577.009C775.972 577.843 776.469 578.404 777.11 578.693C777.752 578.981 778.505 579.126 779.371 579.126C780.012 579.126 780.638 579.078 781.247 578.981C781.888 578.853 782.353 578.741 782.642 578.645V587.687C781.808 588.008 780.846 588.28 779.756 588.505C778.666 588.729 777.351 588.841 775.812 588.841C773.535 588.841 771.499 588.376 769.703 587.447C767.908 586.485 766.497 584.929 765.471 582.781C764.445 580.601 763.932 577.715 763.932 574.124V523.093ZM803.083 535.838V587.879H791.876V535.838H803.083ZM791.299 522.179C791.299 520.383 791.844 518.892 792.934 517.706C794.024 516.52 795.548 515.926 797.503 515.926C799.459 515.926 800.982 516.52 802.073 517.706C803.163 518.892 803.708 520.383 803.708 522.179C803.708 523.943 803.163 525.417 802.073 526.604C800.982 527.79 799.459 528.383 797.503 528.383C795.548 528.383 794.024 527.79 792.934 526.604C791.844 525.417 791.299 523.943 791.299 522.179ZM813.424 563.975V559.791C813.424 555.751 813.921 552.175 814.915 549.065C815.909 545.955 817.319 543.358 819.147 541.273C821.007 539.157 823.187 537.57 825.688 536.512C828.189 535.422 830.947 534.877 833.961 534.877C837.039 534.877 839.829 535.422 842.33 536.512C844.863 537.57 847.043 539.157 848.871 541.273C850.731 543.358 852.158 545.955 853.152 549.065C854.146 552.175 854.643 555.751 854.643 559.791V563.975C854.643 568.015 854.146 571.591 853.152 574.701C852.158 577.811 850.731 580.424 848.871 582.541C847.043 584.625 844.879 586.196 842.378 587.254C839.877 588.312 837.103 588.841 834.057 588.841C831.043 588.841 828.269 588.312 825.736 587.254C823.235 586.196 821.055 584.625 819.195 582.541C817.335 580.424 815.909 577.811 814.915 574.701C813.921 571.591 813.424 568.015 813.424 563.975ZM824.63 559.791V563.975C824.63 566.572 824.855 568.849 825.304 570.805C825.752 572.729 826.394 574.332 827.227 575.615C828.061 576.897 829.055 577.859 830.209 578.5C831.364 579.142 832.646 579.462 834.057 579.462C835.628 579.462 836.991 579.142 838.145 578.5C839.332 577.859 840.31 576.897 841.079 575.615C841.881 574.332 842.474 572.729 842.859 570.805C843.244 568.849 843.436 566.572 843.436 563.975V559.791C843.436 557.226 843.212 554.981 842.763 553.057C842.314 551.101 841.673 549.482 840.839 548.199C840.005 546.885 838.995 545.907 837.809 545.265C836.654 544.624 835.372 544.304 833.961 544.304C832.582 544.304 831.316 544.624 830.161 545.265C829.039 545.907 828.061 546.885 827.227 548.199C826.394 549.482 825.752 551.101 825.304 553.057C824.855 554.981 824.63 557.226 824.63 559.791ZM875.373 546.949V587.879H864.166V535.838H874.699L875.373 546.949ZM873.352 559.983H869.793C869.761 556.232 870.162 552.817 870.996 549.739C871.829 546.66 873.016 544.015 874.555 541.803C876.094 539.59 877.938 537.891 880.086 536.704C882.266 535.486 884.687 534.877 887.349 534.877C889.433 534.877 891.325 535.229 893.024 535.935C894.756 536.608 896.231 537.714 897.449 539.253C898.667 540.792 899.597 542.797 900.239 545.265C900.912 547.734 901.249 550.749 901.249 554.308V587.879H890.042V554.212C890.042 551.775 889.77 549.851 889.224 548.44C888.711 546.997 887.942 545.971 886.916 545.362C885.89 544.72 884.591 544.4 883.02 544.4C881.577 544.4 880.246 544.817 879.028 545.65C877.841 546.452 876.815 547.574 875.95 549.017C875.116 550.428 874.475 552.079 874.026 553.971C873.577 555.831 873.352 557.835 873.352 559.983Z" fill="#002DFF"/>
<path d="M332.129 639.903C337.288 639.903 341.052 641.015 343.422 643.239C345.792 645.444 346.977 648.489 346.977 652.372C346.977 654.122 346.712 655.799 346.184 657.403C345.655 658.989 344.789 660.402 343.586 661.641C342.401 662.881 340.815 663.865 338.828 664.594C336.841 665.305 334.389 665.661 331.473 665.661H327.836V679.879H319.359V639.903H332.129ZM331.691 646.848H327.836V658.715H330.625C332.211 658.715 333.587 658.506 334.754 658.086C335.921 657.667 336.823 657.011 337.461 656.118C338.099 655.224 338.418 654.076 338.418 652.672C338.418 650.704 337.871 649.245 336.777 648.297C335.684 647.331 333.988 646.848 331.691 646.848ZM370.93 648.735C371.349 648.735 371.832 648.762 372.379 648.817C372.944 648.853 373.4 648.908 373.746 648.981L373.117 656.801C372.844 656.71 372.452 656.646 371.941 656.61C371.449 656.555 371.021 656.528 370.656 656.528C369.581 656.528 368.533 656.665 367.512 656.938C366.509 657.211 365.607 657.658 364.805 658.278C364.003 658.879 363.365 659.681 362.891 660.684C362.435 661.668 362.207 662.881 362.207 664.321V679.879H353.867V649.309H360.184L361.414 654.45H361.824C362.426 653.411 363.173 652.463 364.066 651.606C364.978 650.731 366.008 650.038 367.156 649.528C368.323 648.999 369.581 648.735 370.93 648.735ZM387.637 649.309V679.879H379.297V649.309H387.637ZM383.48 637.333C384.72 637.333 385.786 637.624 386.68 638.208C387.573 638.773 388.02 639.839 388.02 641.407C388.02 642.956 387.573 644.032 386.68 644.633C385.786 645.217 384.72 645.508 383.48 645.508C382.223 645.508 381.147 645.217 380.254 644.633C379.379 644.032 378.941 642.956 378.941 641.407C378.941 639.839 379.379 638.773 380.254 638.208C381.147 637.624 382.223 637.333 383.48 637.333ZM403.688 679.879L392.039 649.309H400.762L406.668 666.727C406.996 667.748 407.251 668.823 407.434 669.954C407.634 671.084 407.771 672.096 407.844 672.989H408.062C408.117 672.023 408.245 670.993 408.445 669.899C408.664 668.805 408.947 667.748 409.293 666.727L415.172 649.309H423.895L412.246 679.879H403.688ZM440.82 648.68C444.922 648.68 448.066 649.573 450.254 651.36C452.441 653.146 453.535 655.862 453.535 659.508V679.879H447.711L446.098 675.723H445.879C445.004 676.817 444.111 677.71 443.199 678.403C442.288 679.096 441.24 679.606 440.055 679.934C438.87 680.262 437.43 680.426 435.734 680.426C433.93 680.426 432.307 680.08 430.867 679.387C429.445 678.694 428.324 677.637 427.504 676.215C426.684 674.775 426.273 672.952 426.273 670.747C426.273 667.502 427.413 665.114 429.691 663.583C431.97 662.033 435.388 661.176 439.945 661.012L445.25 660.848V659.508C445.25 657.904 444.831 656.728 443.992 655.981C443.154 655.234 441.987 654.86 440.492 654.86C439.016 654.86 437.566 655.069 436.145 655.489C434.723 655.908 433.301 656.437 431.879 657.075L429.117 651.442C430.74 650.585 432.553 649.911 434.559 649.418C436.582 648.926 438.669 648.68 440.82 648.68ZM445.25 665.715L442.023 665.825C439.326 665.898 437.448 666.381 436.391 667.274C435.352 668.167 434.832 669.343 434.832 670.801C434.832 672.077 435.206 672.989 435.953 673.536C436.701 674.064 437.676 674.329 438.879 674.329C440.665 674.329 442.169 673.8 443.391 672.743C444.63 671.685 445.25 670.181 445.25 668.231V665.715ZM475.027 673.782C475.939 673.782 476.823 673.691 477.68 673.508C478.555 673.326 479.421 673.098 480.277 672.825V679.032C479.384 679.433 478.272 679.761 476.941 680.016C475.629 680.29 474.189 680.426 472.621 680.426C470.798 680.426 469.158 680.135 467.699 679.551C466.259 678.95 465.12 677.92 464.281 676.461C463.461 674.985 463.051 672.934 463.051 670.309V655.571H459.059V652.043L463.652 649.254L466.059 642.801H471.391V649.309H479.949V655.571H471.391V670.309C471.391 671.476 471.719 672.351 472.375 672.934C473.049 673.499 473.934 673.782 475.027 673.782ZM499.09 648.735C501.915 648.735 504.349 649.282 506.391 650.375C508.432 651.451 510.009 653.019 511.121 655.079C512.233 657.139 512.789 659.654 512.789 662.625V666.672H493.074C493.165 669.024 493.867 670.874 495.18 672.223C496.51 673.554 498.352 674.219 500.703 674.219C502.654 674.219 504.44 674.019 506.062 673.618C507.685 673.217 509.353 672.615 511.066 671.813V678.266C509.553 679.014 507.967 679.56 506.309 679.907C504.668 680.253 502.672 680.426 500.32 680.426C497.258 680.426 494.542 679.861 492.172 678.731C489.82 677.601 487.97 675.878 486.621 673.563C485.29 671.248 484.625 668.331 484.625 664.813C484.625 661.24 485.227 658.269 486.43 655.899C487.651 653.511 489.346 651.724 491.516 650.54C493.685 649.336 496.21 648.735 499.09 648.735ZM499.145 654.668C497.522 654.668 496.173 655.188 495.098 656.227C494.04 657.266 493.43 658.898 493.266 661.122H504.969C504.951 659.882 504.723 658.779 504.285 657.813C503.866 656.847 503.228 656.081 502.371 655.516C501.533 654.951 500.457 654.668 499.145 654.668ZM558.371 668.778C558.371 671.148 557.797 673.208 556.648 674.958C555.5 676.708 553.823 678.056 551.617 679.004C549.43 679.952 546.768 680.426 543.633 680.426C542.247 680.426 540.889 680.335 539.559 680.153C538.246 679.971 536.979 679.706 535.758 679.36C534.555 678.995 533.406 678.549 532.312 678.02V670.145C534.208 670.984 536.177 671.74 538.219 672.415C540.26 673.089 542.284 673.426 544.289 673.426C545.674 673.426 546.786 673.244 547.625 672.879C548.482 672.515 549.102 672.014 549.484 671.375C549.867 670.737 550.059 670.008 550.059 669.188C550.059 668.185 549.721 667.329 549.047 666.618C548.372 665.907 547.443 665.241 546.258 664.622C545.091 664.002 543.77 663.336 542.293 662.625C541.363 662.188 540.352 661.659 539.258 661.04C538.164 660.402 537.125 659.627 536.141 658.715C535.156 657.804 534.345 656.701 533.707 655.407C533.087 654.094 532.777 652.527 532.777 650.704C532.777 648.316 533.324 646.274 534.418 644.579C535.512 642.883 537.07 641.589 539.094 640.696C541.135 639.784 543.542 639.329 546.312 639.329C548.391 639.329 550.368 639.575 552.246 640.067C554.142 640.541 556.12 641.234 558.18 642.145L555.445 648.735C553.604 647.987 551.954 647.413 550.496 647.012C549.038 646.593 547.552 646.383 546.039 646.383C544.982 646.383 544.079 646.556 543.332 646.903C542.585 647.231 542.02 647.705 541.637 648.325C541.254 648.926 541.062 649.628 541.062 650.43C541.062 651.378 541.336 652.18 541.883 652.836C542.448 653.474 543.286 654.094 544.398 654.696C545.529 655.297 546.932 655.999 548.609 656.801C550.651 657.767 552.392 658.779 553.832 659.836C555.29 660.875 556.411 662.106 557.195 663.528C557.979 664.931 558.371 666.681 558.371 668.778ZM577.375 680.426C574.349 680.426 571.77 679.879 569.637 678.786C567.504 677.674 565.882 675.96 564.77 673.645C563.658 671.33 563.102 668.368 563.102 664.758C563.102 661.021 563.73 657.977 564.988 655.625C566.264 653.256 568.023 651.515 570.266 650.403C572.526 649.291 575.142 648.735 578.113 648.735C580.228 648.735 582.051 648.944 583.582 649.364C585.132 649.765 586.48 650.248 587.629 650.813L585.168 657.266C583.855 656.737 582.634 656.309 581.504 655.981C580.374 655.635 579.243 655.461 578.113 655.461C576.655 655.461 575.443 655.808 574.477 656.5C573.51 657.175 572.79 658.196 572.316 659.563C571.842 660.93 571.605 662.644 571.605 664.704C571.605 666.727 571.861 668.404 572.371 669.735C572.882 671.066 573.62 672.059 574.586 672.715C575.552 673.353 576.728 673.672 578.113 673.672C579.845 673.672 581.385 673.444 582.734 672.989C584.083 672.515 585.396 671.859 586.672 671.02V678.157C585.396 678.959 584.056 679.533 582.652 679.879C581.267 680.244 579.508 680.426 577.375 680.426ZM602.121 637.333V646C602.121 647.514 602.066 648.954 601.957 650.321C601.866 651.688 601.793 652.654 601.738 653.219H602.176C602.832 652.162 603.607 651.305 604.5 650.649C605.411 649.993 606.414 649.51 607.508 649.2C608.602 648.89 609.777 648.735 611.035 648.735C613.241 648.735 615.164 649.127 616.805 649.911C618.445 650.676 619.721 651.889 620.633 653.547C621.544 655.188 622 657.321 622 659.946V679.879H613.66V662.024C613.66 659.836 613.259 658.187 612.457 657.075C611.655 655.963 610.415 655.407 608.738 655.407C607.061 655.407 605.74 655.799 604.773 656.583C603.807 657.348 603.124 658.487 602.723 660C602.322 661.495 602.121 663.327 602.121 665.497V679.879H593.781V637.333H602.121ZM658.367 664.54C658.367 667.092 658.021 669.352 657.328 671.321C656.654 673.29 655.66 674.958 654.348 676.325C653.053 677.674 651.486 678.694 649.645 679.387C647.822 680.08 645.762 680.426 643.465 680.426C641.314 680.426 639.336 680.08 637.531 679.387C635.745 678.694 634.186 677.674 632.855 676.325C631.543 674.958 630.522 673.29 629.793 671.321C629.082 669.352 628.727 667.092 628.727 664.54C628.727 661.149 629.328 658.278 630.531 655.926C631.734 653.575 633.448 651.788 635.672 650.567C637.896 649.346 640.548 648.735 643.629 648.735C646.491 648.735 649.025 649.346 651.23 650.567C653.454 651.788 655.195 653.575 656.453 655.926C657.729 658.278 658.367 661.149 658.367 664.54ZM637.23 664.54C637.23 666.545 637.449 668.231 637.887 669.598C638.324 670.965 639.008 671.995 639.938 672.688C640.867 673.381 642.079 673.727 643.574 673.727C645.051 673.727 646.245 673.381 647.156 672.688C648.086 671.995 648.76 670.965 649.18 669.598C649.617 668.231 649.836 666.545 649.836 664.54C649.836 662.516 649.617 660.839 649.18 659.508C648.76 658.159 648.086 657.148 647.156 656.473C646.227 655.799 645.014 655.461 643.52 655.461C641.314 655.461 639.71 656.218 638.707 657.731C637.723 659.244 637.23 661.514 637.23 664.54ZM693.039 664.54C693.039 667.092 692.693 669.352 692 671.321C691.326 673.29 690.332 674.958 689.02 676.325C687.725 677.674 686.158 678.694 684.316 679.387C682.493 680.08 680.434 680.426 678.137 680.426C675.986 680.426 674.008 680.08 672.203 679.387C670.417 678.694 668.858 677.674 667.527 676.325C666.215 674.958 665.194 673.29 664.465 671.321C663.754 669.352 663.398 667.092 663.398 664.54C663.398 661.149 664 658.278 665.203 655.926C666.406 653.575 668.12 651.788 670.344 650.567C672.568 649.346 675.22 648.735 678.301 648.735C681.163 648.735 683.697 649.346 685.902 650.567C688.126 651.788 689.867 653.575 691.125 655.926C692.401 658.278 693.039 661.149 693.039 664.54ZM671.902 664.54C671.902 666.545 672.121 668.231 672.559 669.598C672.996 670.965 673.68 671.995 674.609 672.688C675.539 673.381 676.751 673.727 678.246 673.727C679.723 673.727 680.917 673.381 681.828 672.688C682.758 671.995 683.432 670.965 683.852 669.598C684.289 668.231 684.508 666.545 684.508 664.54C684.508 662.516 684.289 660.839 683.852 659.508C683.432 658.159 682.758 657.148 681.828 656.473C680.898 655.799 679.686 655.461 678.191 655.461C675.986 655.461 674.382 656.218 673.379 657.731C672.395 659.244 671.902 661.514 671.902 664.54ZM708.27 679.879H699.93V637.333H708.27V679.879Z" fill="#001161"/>
<path d="M192.5 771.879H166.188V726.192H192.5V734.129H175.875V744.161H191.344V752.098H175.875V763.879H192.5V771.879ZM212.375 772.504C208.479 772.504 205.302 770.984 202.844 767.942C200.406 764.879 199.188 760.39 199.188 754.473C199.188 748.494 200.427 743.973 202.906 740.911C205.385 737.827 208.625 736.286 212.625 736.286C214.292 736.286 215.76 736.515 217.031 736.973C218.302 737.431 219.396 738.046 220.312 738.817C221.25 739.588 222.042 740.452 222.688 741.411H223C222.875 740.744 222.719 739.765 222.531 738.473C222.365 737.161 222.281 735.817 222.281 734.442V723.254H231.844V771.879H224.531L222.688 767.348H222.281C221.677 768.306 220.917 769.181 220 769.973C219.104 770.744 218.031 771.359 216.781 771.817C215.531 772.275 214.062 772.504 212.375 772.504ZM215.719 764.911C218.323 764.911 220.156 764.14 221.219 762.598C222.302 761.036 222.875 758.692 222.938 755.567V754.536C222.938 751.14 222.417 748.546 221.375 746.754C220.333 744.942 218.396 744.036 215.562 744.036C213.458 744.036 211.812 744.942 210.625 746.754C209.438 748.567 208.844 751.181 208.844 754.598C208.844 758.015 209.438 760.588 210.625 762.317C211.833 764.046 213.531 764.911 215.719 764.911ZM273.875 736.942V771.879H266.562L265.281 767.411H264.781C264.031 768.598 263.094 769.567 261.969 770.317C260.844 771.067 259.604 771.619 258.25 771.973C256.896 772.327 255.49 772.504 254.031 772.504C251.531 772.504 249.354 772.067 247.5 771.192C245.646 770.296 244.198 768.911 243.156 767.036C242.135 765.161 241.625 762.723 241.625 759.723V736.942H251.156V757.348C251.156 759.848 251.604 761.734 252.5 763.004C253.396 764.275 254.823 764.911 256.781 764.911C258.719 764.911 260.24 764.473 261.344 763.598C262.448 762.702 263.219 761.4 263.656 759.692C264.115 757.963 264.344 755.859 264.344 753.379V736.942H273.875ZM298.062 772.504C294.604 772.504 291.656 771.879 289.219 770.629C286.781 769.359 284.927 767.4 283.656 764.754C282.385 762.109 281.75 758.723 281.75 754.598C281.75 750.327 282.469 746.848 283.906 744.161C285.365 741.452 287.375 739.463 289.938 738.192C292.521 736.921 295.51 736.286 298.906 736.286C301.323 736.286 303.406 736.525 305.156 737.004C306.927 737.463 308.469 738.015 309.781 738.661L306.969 746.036C305.469 745.431 304.073 744.942 302.781 744.567C301.49 744.171 300.198 743.973 298.906 743.973C297.24 743.973 295.854 744.369 294.75 745.161C293.646 745.931 292.823 747.098 292.281 748.661C291.74 750.223 291.469 752.181 291.469 754.536C291.469 756.848 291.76 758.765 292.344 760.286C292.927 761.806 293.771 762.942 294.875 763.692C295.979 764.421 297.323 764.786 298.906 764.786C300.885 764.786 302.646 764.525 304.188 764.004C305.729 763.463 307.229 762.713 308.688 761.754V769.911C307.229 770.827 305.698 771.484 304.094 771.879C302.51 772.296 300.5 772.504 298.062 772.504ZM331.125 736.223C335.812 736.223 339.406 737.244 341.906 739.286C344.406 741.327 345.656 744.431 345.656 748.598V771.879H339L337.156 767.129H336.906C335.906 768.379 334.885 769.4 333.844 770.192C332.802 770.984 331.604 771.567 330.25 771.942C328.896 772.317 327.25 772.504 325.312 772.504C323.25 772.504 321.396 772.109 319.75 771.317C318.125 770.525 316.844 769.317 315.906 767.692C314.969 766.046 314.5 763.963 314.5 761.442C314.5 757.734 315.802 755.004 318.406 753.254C321.01 751.484 324.917 750.504 330.125 750.317L336.188 750.129V748.598C336.188 746.765 335.708 745.421 334.75 744.567C333.792 743.713 332.458 743.286 330.75 743.286C329.062 743.286 327.406 743.525 325.781 744.004C324.156 744.484 322.531 745.088 320.906 745.817L317.75 739.379C319.604 738.4 321.677 737.629 323.969 737.067C326.281 736.504 328.667 736.223 331.125 736.223ZM336.188 755.692L332.5 755.817C329.417 755.9 327.271 756.452 326.062 757.473C324.875 758.494 324.281 759.838 324.281 761.504C324.281 762.963 324.708 764.004 325.562 764.629C326.417 765.234 327.531 765.536 328.906 765.536C330.948 765.536 332.667 764.931 334.062 763.723C335.479 762.515 336.188 760.796 336.188 758.567V755.692ZM370.219 764.911C371.26 764.911 372.271 764.806 373.25 764.598C374.25 764.39 375.24 764.129 376.219 763.817V770.911C375.198 771.369 373.927 771.744 372.406 772.036C370.906 772.348 369.26 772.504 367.469 772.504C365.385 772.504 363.51 772.171 361.844 771.504C360.198 770.817 358.896 769.64 357.938 767.973C357 766.286 356.531 763.942 356.531 760.942V744.098H351.969V740.067L357.219 736.879L359.969 729.504H366.062V736.942H375.844V744.098H366.062V760.942C366.062 762.275 366.438 763.275 367.188 763.942C367.958 764.588 368.969 764.911 370.219 764.911ZM392.844 736.942V771.879H383.312V736.942H392.844ZM388.094 723.254C389.51 723.254 390.729 723.588 391.75 724.254C392.771 724.9 393.281 726.119 393.281 727.911C393.281 729.681 392.771 730.911 391.75 731.598C390.729 732.265 389.51 732.598 388.094 732.598C386.656 732.598 385.427 732.265 384.406 731.598C383.406 730.911 382.906 729.681 382.906 727.911C382.906 726.119 383.406 724.9 384.406 724.254C385.427 723.588 386.656 723.254 388.094 723.254ZM434.625 754.348C434.625 757.265 434.229 759.848 433.438 762.098C432.667 764.348 431.531 766.254 430.031 767.817C428.552 769.359 426.76 770.525 424.656 771.317C422.573 772.109 420.219 772.504 417.594 772.504C415.135 772.504 412.875 772.109 410.812 771.317C408.771 770.525 406.99 769.359 405.469 767.817C403.969 766.254 402.802 764.348 401.969 762.098C401.156 759.848 400.75 757.265 400.75 754.348C400.75 750.473 401.438 747.192 402.812 744.504C404.188 741.817 406.146 739.775 408.688 738.379C411.229 736.984 414.26 736.286 417.781 736.286C421.052 736.286 423.948 736.984 426.469 738.379C429.01 739.775 431 741.817 432.438 744.504C433.896 747.192 434.625 750.473 434.625 754.348ZM410.469 754.348C410.469 756.64 410.719 758.567 411.219 760.129C411.719 761.692 412.5 762.869 413.562 763.661C414.625 764.452 416.01 764.848 417.719 764.848C419.406 764.848 420.771 764.452 421.812 763.661C422.875 762.869 423.646 761.692 424.125 760.129C424.625 758.567 424.875 756.64 424.875 754.348C424.875 752.036 424.625 750.119 424.125 748.598C423.646 747.056 422.875 745.9 421.812 745.129C420.75 744.359 419.365 743.973 417.656 743.973C415.135 743.973 413.302 744.838 412.156 746.567C411.031 748.296 410.469 750.89 410.469 754.348ZM462.344 736.286C466.073 736.286 469.073 737.306 471.344 739.348C473.615 741.369 474.75 744.619 474.75 749.098V771.879H465.219V751.473C465.219 748.973 464.76 747.088 463.844 745.817C462.948 744.546 461.531 743.911 459.594 743.911C456.677 743.911 454.688 744.9 453.625 746.879C452.562 748.859 452.031 751.713 452.031 755.442V771.879H442.5V736.942H449.781L451.062 741.411H451.594C452.344 740.202 453.271 739.223 454.375 738.473C455.5 737.723 456.74 737.171 458.094 736.817C459.469 736.463 460.885 736.286 462.344 736.286ZM520.5 744.098H512.25V771.879H502.719V744.098H497.469V739.504L502.719 736.942V734.379C502.719 731.4 503.219 729.088 504.219 727.442C505.24 725.775 506.667 724.609 508.5 723.942C510.354 723.254 512.542 722.911 515.062 722.911C516.917 722.911 518.604 723.067 520.125 723.379C521.646 723.671 522.885 724.004 523.844 724.379L521.406 731.379C520.677 731.15 519.885 730.942 519.031 730.754C518.177 730.567 517.198 730.473 516.094 730.473C514.76 730.473 513.781 730.879 513.156 731.692C512.552 732.484 512.25 733.504 512.25 734.754V736.942H520.5V744.098ZM557.75 754.348C557.75 757.265 557.354 759.848 556.562 762.098C555.792 764.348 554.656 766.254 553.156 767.817C551.677 769.359 549.885 770.525 547.781 771.317C545.698 772.109 543.344 772.504 540.719 772.504C538.26 772.504 536 772.109 533.938 771.317C531.896 770.525 530.115 769.359 528.594 767.817C527.094 766.254 525.927 764.348 525.094 762.098C524.281 759.848 523.875 757.265 523.875 754.348C523.875 750.473 524.562 747.192 525.938 744.504C527.312 741.817 529.271 739.775 531.812 738.379C534.354 736.984 537.385 736.286 540.906 736.286C544.177 736.286 547.073 736.984 549.594 738.379C552.135 739.775 554.125 741.817 555.562 744.504C557.021 747.192 557.75 750.473 557.75 754.348ZM533.594 754.348C533.594 756.64 533.844 758.567 534.344 760.129C534.844 761.692 535.625 762.869 536.688 763.661C537.75 764.452 539.135 764.848 540.844 764.848C542.531 764.848 543.896 764.452 544.938 763.661C546 762.869 546.771 761.692 547.25 760.129C547.75 758.567 548 756.64 548 754.348C548 752.036 547.75 750.119 547.25 748.598C546.771 747.056 546 745.9 544.938 745.129C543.875 744.359 542.49 743.973 540.781 743.973C538.26 743.973 536.427 744.838 535.281 746.567C534.156 748.296 533.594 750.89 533.594 754.348ZM585.125 736.286C585.604 736.286 586.156 736.317 586.781 736.379C587.427 736.421 587.948 736.484 588.344 736.567L587.625 745.504C587.312 745.4 586.865 745.327 586.281 745.286C585.719 745.223 585.229 745.192 584.812 745.192C583.583 745.192 582.385 745.348 581.219 745.661C580.073 745.973 579.042 746.484 578.125 747.192C577.208 747.879 576.479 748.796 575.938 749.942C575.417 751.067 575.156 752.452 575.156 754.098V771.879H565.625V736.942H572.844L574.25 742.817H574.719C575.406 741.629 576.26 740.546 577.281 739.567C578.323 738.567 579.5 737.775 580.812 737.192C582.146 736.588 583.583 736.286 585.125 736.286ZM625.625 736.223C630.312 736.223 633.906 737.244 636.406 739.286C638.906 741.327 640.156 744.431 640.156 748.598V771.879H633.5L631.656 767.129H631.406C630.406 768.379 629.385 769.4 628.344 770.192C627.302 770.984 626.104 771.567 624.75 771.942C623.396 772.317 621.75 772.504 619.812 772.504C617.75 772.504 615.896 772.109 614.25 771.317C612.625 770.525 611.344 769.317 610.406 767.692C609.469 766.046 609 763.963 609 761.442C609 757.734 610.302 755.004 612.906 753.254C615.51 751.484 619.417 750.504 624.625 750.317L630.688 750.129V748.598C630.688 746.765 630.208 745.421 629.25 744.567C628.292 743.713 626.958 743.286 625.25 743.286C623.562 743.286 621.906 743.525 620.281 744.004C618.656 744.484 617.031 745.088 615.406 745.817L612.25 739.379C614.104 738.4 616.177 737.629 618.469 737.067C620.781 736.504 623.167 736.223 625.625 736.223ZM630.688 755.692L627 755.817C623.917 755.9 621.771 756.452 620.562 757.473C619.375 758.494 618.781 759.838 618.781 761.504C618.781 762.963 619.208 764.004 620.062 764.629C620.917 765.234 622.031 765.536 623.406 765.536C625.448 765.536 627.167 764.931 628.562 763.723C629.979 762.515 630.688 760.796 630.688 758.567V755.692ZM659.531 771.879H650V723.254H659.531V771.879ZM679.094 771.879H669.562V723.254H679.094V771.879ZM720.062 736.223C724.75 736.223 728.344 737.244 730.844 739.286C733.344 741.327 734.594 744.431 734.594 748.598V771.879H727.938L726.094 767.129H725.844C724.844 768.379 723.823 769.4 722.781 770.192C721.74 770.984 720.542 771.567 719.188 771.942C717.833 772.317 716.188 772.504 714.25 772.504C712.188 772.504 710.333 772.109 708.688 771.317C707.062 770.525 705.781 769.317 704.844 767.692C703.906 766.046 703.438 763.963 703.438 761.442C703.438 757.734 704.74 755.004 707.344 753.254C709.948 751.484 713.854 750.504 719.062 750.317L725.125 750.129V748.598C725.125 746.765 724.646 745.421 723.688 744.567C722.729 743.713 721.396 743.286 719.688 743.286C718 743.286 716.344 743.525 714.719 744.004C713.094 744.484 711.469 745.088 709.844 745.817L706.688 739.379C708.542 738.4 710.615 737.629 712.906 737.067C715.219 736.504 717.604 736.223 720.062 736.223ZM725.125 755.692L721.438 755.817C718.354 755.9 716.208 756.452 715 757.473C713.812 758.494 713.219 759.838 713.219 761.504C713.219 762.963 713.646 764.004 714.5 764.629C715.354 765.234 716.469 765.536 717.844 765.536C719.885 765.536 721.604 764.931 723 763.723C724.417 762.515 725.125 760.796 725.125 758.567V755.692ZM754.656 787.254C749.781 787.254 746.052 786.4 743.469 784.692C740.906 783.004 739.625 780.629 739.625 777.567C739.625 775.463 740.281 773.702 741.594 772.286C742.906 770.869 744.833 769.859 747.375 769.254C746.396 768.838 745.542 768.161 744.812 767.223C744.083 766.265 743.719 765.254 743.719 764.192C743.719 762.859 744.104 761.754 744.875 760.879C745.646 759.984 746.76 759.109 748.219 758.254C746.385 757.463 744.927 756.192 743.844 754.442C742.781 752.692 742.25 750.629 742.25 748.254C742.25 745.713 742.802 743.556 743.906 741.786C745.031 739.994 746.656 738.629 748.781 737.692C750.927 736.754 753.531 736.286 756.594 736.286C757.24 736.286 757.99 736.327 758.844 736.411C759.698 736.494 760.479 736.588 761.188 736.692C761.917 736.796 762.406 736.879 762.656 736.942H774.844V741.786L769.375 743.192C769.875 743.963 770.25 744.786 770.5 745.661C770.75 746.536 770.875 747.463 770.875 748.442C770.875 752.192 769.562 755.119 766.938 757.223C764.333 759.306 760.708 760.348 756.062 760.348C754.958 760.286 753.917 760.202 752.938 760.098C752.458 760.473 752.094 760.869 751.844 761.286C751.594 761.702 751.469 762.14 751.469 762.598C751.469 763.056 751.656 763.442 752.031 763.754C752.427 764.046 753.01 764.275 753.781 764.442C754.573 764.588 755.552 764.661 756.719 764.661H762.656C766.49 764.661 769.406 765.484 771.406 767.129C773.427 768.775 774.438 771.192 774.438 774.379C774.438 778.463 772.729 781.629 769.312 783.879C765.917 786.129 761.031 787.254 754.656 787.254ZM755.062 781.036C757.333 781.036 759.281 780.817 760.906 780.379C762.552 779.963 763.812 779.359 764.688 778.567C765.562 777.796 766 776.869 766 775.786C766 774.911 765.74 774.213 765.219 773.692C764.719 773.192 763.948 772.838 762.906 772.629C761.885 772.421 760.573 772.317 758.969 772.317H754.031C752.865 772.317 751.812 772.504 750.875 772.879C749.958 773.254 749.229 773.775 748.688 774.442C748.146 775.129 747.875 775.921 747.875 776.817C747.875 778.129 748.5 779.161 749.75 779.911C751.021 780.661 752.792 781.036 755.062 781.036ZM756.594 754.536C758.385 754.536 759.698 753.984 760.531 752.879C761.365 751.775 761.781 750.275 761.781 748.379C761.781 746.275 761.344 744.702 760.469 743.661C759.615 742.598 758.323 742.067 756.594 742.067C754.844 742.067 753.531 742.598 752.656 743.661C751.781 744.702 751.344 746.275 751.344 748.379C751.344 750.275 751.771 751.775 752.625 752.879C753.5 753.984 754.823 754.536 756.594 754.536ZM795.031 736.286C798.26 736.286 801.042 736.911 803.375 738.161C805.708 739.39 807.51 741.181 808.781 743.536C810.052 745.89 810.688 748.765 810.688 752.161V756.786H788.156C788.26 759.473 789.062 761.588 790.562 763.129C792.083 764.65 794.188 765.411 796.875 765.411C799.104 765.411 801.146 765.181 803 764.723C804.854 764.265 806.76 763.577 808.719 762.661V770.036C806.99 770.89 805.177 771.515 803.281 771.911C801.406 772.306 799.125 772.504 796.438 772.504C792.938 772.504 789.833 771.859 787.125 770.567C784.438 769.275 782.323 767.306 780.781 764.661C779.26 762.015 778.5 758.681 778.5 754.661C778.5 750.577 779.188 747.181 780.562 744.473C781.958 741.744 783.896 739.702 786.375 738.348C788.854 736.973 791.74 736.286 795.031 736.286ZM795.094 743.067C793.24 743.067 791.698 743.661 790.469 744.848C789.26 746.036 788.562 747.9 788.375 750.442H801.75C801.729 749.025 801.469 747.765 800.969 746.661C800.49 745.556 799.76 744.681 798.781 744.036C797.823 743.39 796.594 743.067 795.094 743.067ZM842.812 761.504C842.812 763.879 842.25 765.89 841.125 767.536C840.021 769.161 838.365 770.4 836.156 771.254C833.948 772.088 831.198 772.504 827.906 772.504C825.469 772.504 823.375 772.348 821.625 772.036C819.896 771.723 818.146 771.202 816.375 770.473V762.598C818.271 763.452 820.302 764.161 822.469 764.723C824.656 765.265 826.573 765.536 828.219 765.536C830.073 765.536 831.396 765.265 832.188 764.723C833 764.161 833.406 763.431 833.406 762.536C833.406 761.952 833.24 761.431 832.906 760.973C832.594 760.494 831.906 759.963 830.844 759.379C829.781 758.775 828.115 757.994 825.844 757.036C823.656 756.119 821.854 755.192 820.438 754.254C819.042 753.317 818 752.213 817.312 750.942C816.646 749.65 816.312 748.015 816.312 746.036C816.312 742.806 817.562 740.379 820.062 738.754C822.583 737.109 825.948 736.286 830.156 736.286C832.323 736.286 834.385 736.504 836.344 736.942C838.323 737.379 840.354 738.077 842.438 739.036L839.562 745.911C837.833 745.161 836.198 744.546 834.656 744.067C833.135 743.588 831.583 743.348 830 743.348C828.604 743.348 827.552 743.536 826.844 743.911C826.135 744.286 825.781 744.859 825.781 745.629C825.781 746.192 825.958 746.692 826.312 747.129C826.688 747.567 827.396 748.056 828.438 748.598C829.5 749.119 831.052 749.796 833.094 750.629C835.073 751.442 836.792 752.296 838.25 753.192C839.708 754.067 840.833 755.161 841.625 756.473C842.417 757.765 842.812 759.442 842.812 761.504ZM858.25 756.723H850.625L849.031 726.192H859.844L858.25 756.723ZM848.906 767.411C848.906 765.452 849.438 764.077 850.5 763.286C851.583 762.494 852.885 762.098 854.406 762.098C855.885 762.098 857.156 762.494 858.219 763.286C859.302 764.077 859.844 765.452 859.844 767.411C859.844 769.286 859.302 770.64 858.219 771.473C857.156 772.306 855.885 772.723 854.406 772.723C852.885 772.723 851.583 772.306 850.5 771.473C849.438 770.64 848.906 769.286 848.906 767.411Z" fill="#002DFF"/>
<path d="M643.012 345.185C606.175 360.673 530 404.999 518 424.999C512 436.999 519.349 440.114 534 432.998C566.651 417.091 612.28 399.324 660 382.999C720.431 363.557 718 360.999 718.36 347.697C712 325 698 324.999 643.012 345.185Z" fill="#418E55"/>
<path d="M734.734 391.45C663.2 402.486 602.294 420.472 547.928 446.224C518.905 460.122 514 463.801 514 472.385C514 483.422 516.453 483.422 548.745 474.02C570.819 467.889 674.236 454.4 736.778 449.903C770.705 447.451 802.18 443.772 807.494 441.319C824.662 434.37 828.341 409.027 814.034 394.72C807.903 388.997 762.939 386.953 734.734 391.45Z" fill="#418E55"/>
<path d="M377.866 343.84C414.703 359.328 490.879 403.654 502.879 423.654C508.879 435.654 501.53 438.769 486.879 431.653C454.228 415.746 408.598 397.979 360.877 381.653C300.446 362.212 302.876 359.653 302.516 346.351C308.877 323.654 322.876 323.653 377.866 343.84Z" fill="#418E55"/>
<path d="M286.142 390.104C357.677 401.141 418.584 419.126 472.951 444.879C501.974 458.777 506.879 462.455 506.879 471.04C506.879 482.076 504.426 482.076 472.133 472.675C450.06 466.543 346.641 453.054 284.098 448.557C250.17 446.105 218.695 442.426 213.381 439.973C196.213 433.024 192.534 407.681 206.841 393.374C212.972 387.651 257.937 385.607 286.142 390.104Z" fill="#418E55"/>
<path d="M354 217L508 125L660 217L584 263V311L508 319L436 311V263L354 217V251H360V299H346V251H354V217Z" fill="#002DFF"/>
<path d="M354 217L508 125L660 217L584 263M354 217L436 263V311C436 311 479.882 315.876 508 319M354 217L508 215M354 217V251M584 263V311C584 311 537.68 315.876 508 319M584 263V243L508 215M508 319C508 278.385 508 215 508 215M354 251H360V299H346V251H354Z" stroke="#002DFF" stroke-width="4"/>
<path d="M584 246.395V311.199L512 318.777V219.868L584 246.395Z" fill="#4667FF" stroke="#4667FF" stroke-width="4"/>
</svg>
